<svg width="268" height="250" viewBox="0 0 268 250" fill="none" xmlns="http://www.w3.org/2000/svg">
<mask id="mask0_349_8568" style="mask-type:alpha" maskUnits="userSpaceOnUse" x="-3" y="-2" width="359" height="297">
<path fill-rule="evenodd" clip-rule="evenodd" d="M159.255 0.314655C182.712 -2.59233 202.691 15.5085 226.041 19.0733C265.121 25.0394 316.054 0.882653 342.413 28.2765C366.464 53.2724 345.897 96.5754 329.185 126.269C314.86 151.723 282.866 162.245 257.638 178.906C241.951 189.266 221.503 192.365 208.791 205.777C187.157 228.604 188.03 268.154 159.255 282.711C130.913 297.048 89.9297 296.945 64.1214 278.963C37.8726 260.673 43.9744 222.646 32.2513 194.218C22.6099 170.838 -6.07083 150.386 1.1534 126.269C8.84792 100.582 46.8131 95.7714 67.3366 77.0911C81.2824 64.3977 87.5228 46.5685 102.043 34.4405C119.181 20.1253 136.386 3.14886 159.255 0.314655Z" fill="#C4C4C4" stroke="white" stroke-width="4"/>
</mask>
<g mask="url(#mask0_349_8568)">
<path fill-rule="evenodd" clip-rule="evenodd" d="M201.693 55.7824C225.153 52.8761 245.135 70.9725 268.488 74.5364C307.573 80.5011 358.513 56.3502 384.876 83.7374C408.93 108.727 388.36 152.02 371.646 181.706C357.319 207.153 325.321 217.673 300.089 234.33C284.4 244.687 263.95 247.785 251.236 261.195C229.599 284.015 230.472 323.556 201.693 338.109C173.347 352.444 132.358 352.341 106.546 334.362C80.294 316.077 86.3967 278.059 74.6719 249.638C65.0292 226.264 36.3446 205.817 43.5698 181.706C51.2654 156.025 89.2357 151.216 109.762 132.54C123.71 119.85 129.951 102.025 144.473 89.8999C161.614 75.5882 178.82 58.6159 201.693 55.7824Z" stroke="white" stroke-width="4"/>
<path fill-rule="evenodd" clip-rule="evenodd" d="M226.833 100.936C247.255 98.4063 264.65 114.159 284.98 117.261C319.005 122.453 363.349 101.43 386.298 125.27C407.238 147.023 389.332 184.708 374.782 210.55C362.31 232.701 334.454 241.858 312.49 256.357C298.832 265.373 281.029 268.07 269.961 279.743C251.126 299.608 251.886 334.027 226.833 346.695C202.157 359.173 166.475 359.083 144.005 343.433C121.152 327.517 126.464 294.423 116.257 269.683C107.863 249.336 82.8924 231.538 89.1821 210.55C95.8813 188.195 128.936 184.009 146.804 167.752C158.946 156.705 164.379 141.189 177.021 130.635C191.943 118.177 206.922 103.403 226.833 100.936Z" stroke="white" stroke-width="4"/>
<path fill-rule="evenodd" clip-rule="evenodd" d="M260.135 139.404C278.279 137.151 293.734 151.18 311.796 153.943C342.025 158.567 381.424 139.844 401.813 161.076C420.417 180.449 404.508 214.011 391.581 237.025C380.5 256.753 355.752 264.908 336.237 277.821C324.102 285.85 308.286 288.252 298.453 298.648C281.718 316.339 282.393 346.993 260.135 358.275C238.212 369.387 206.51 369.307 186.546 355.37C166.242 341.195 170.962 311.722 161.894 289.689C154.436 271.568 132.25 255.717 137.839 237.025C143.79 217.116 173.158 213.388 189.033 198.91C199.821 189.072 204.648 175.253 215.879 165.853C229.136 154.759 242.445 141.601 260.135 139.404Z" stroke="white" stroke-width="4"/>
</g>
</svg>
