<svg width="160" height="38" viewBox="0 0 160 38" fill="none" xmlns="http://www.w3.org/2000/svg">
<path d="M64.0408 10.5H49.1311V13.4766H54.9007V27.3047H58.2712V13.4766H64.0408V10.5Z" fill="#1C3475"/>
<path d="M79.0584 15.1641L76.4795 23.2969L73.9006 15.1641H71.1777L68.6228 23.2969L66.0439 15.1641H62.6734L66.9555 27.3047H69.9903L72.5452 19.6523L75.1001 27.3047H78.1228L82.429 15.1641H79.0584Z" fill="#1C3475"/>
<path d="M89.6739 27.6445C91.1732 27.6445 92.4447 27.293 93.4883 26.6016C94.5318 25.9102 95.2515 25.1016 95.6593 24.1875L92.7326 23.3438C92.1568 24.4102 91.1493 24.9492 89.7099 24.9492C88.6303 24.9492 87.7907 24.7031 87.1789 24.1992C86.5672 23.6953 86.2074 23.0273 86.0994 22.1953H95.7553C95.8033 21.9375 95.8273 21.5625 95.8273 21.0703C95.8273 19.2773 95.2515 17.7891 94.1 16.6055C92.9485 15.4219 91.3772 14.8359 89.398 14.8359C87.4668 14.8359 85.8955 15.4453 84.696 16.6641C83.4965 17.8828 82.8968 19.418 82.8968 21.2578C82.8968 23.1797 83.5205 24.7266 84.768 25.8984C86.0154 27.0703 87.6348 27.6562 89.6379 27.6562L89.6739 27.6445ZM86.0754 20.2148C86.1714 19.4766 86.5192 18.8438 87.119 18.3164C87.7187 17.7891 88.4624 17.5195 89.362 17.5195C90.2976 17.5195 91.0533 17.7773 91.641 18.293C92.2288 18.8086 92.5647 19.4531 92.6486 20.2148H86.0754Z" fill="#1C3475"/>
<path d="M104.284 27.6445C105.783 27.6445 107.054 27.293 108.098 26.6016C109.142 25.9102 109.861 25.1016 110.269 24.1875L107.342 23.3438C106.767 24.4102 105.759 24.9492 104.32 24.9492C103.24 24.9492 102.4 24.7031 101.789 24.1992C101.177 23.6953 100.817 23.0273 100.709 22.1953H110.365C110.413 21.9375 110.437 21.5625 110.437 21.0703C110.437 19.2773 109.861 17.7891 108.71 16.6055C107.558 15.4219 105.987 14.8359 104.008 14.8359C102.077 14.8359 100.505 15.4453 99.3058 16.6641C98.1063 17.8828 97.5066 19.418 97.5066 21.2578C97.5066 23.1797 98.1303 24.7266 99.3778 25.8984C100.625 27.0703 102.245 27.6562 104.248 27.6562L104.284 27.6445ZM100.685 20.2148C100.781 19.4766 101.129 18.8438 101.729 18.3164C102.329 17.7891 103.072 17.5195 103.972 17.5195C104.907 17.5195 105.663 17.7773 106.251 18.293C106.839 18.8086 107.174 19.4531 107.258 20.2148H100.685Z" fill="#1C3475"/>
<path d="M122.276 15.3281L117.958 25.2891L113.616 15.3281H111.577L116.902 27.3047H118.989L124.315 15.3281H122.276Z" fill="#1C3475"/>
<path d="M131.656 27.6211C133.095 27.6211 134.307 27.293 135.29 26.625C136.274 25.957 136.994 25.1367 137.45 24.1641L135.71 23.6602C135.386 24.3281 134.883 24.8789 134.199 25.3125C133.515 25.7461 132.676 25.9688 131.68 25.9688C130.337 25.9688 129.257 25.5938 128.441 24.8438C127.626 24.0938 127.17 23.1094 127.086 21.8906H137.546C137.582 21.6797 137.594 21.3867 137.594 21.0234C137.594 19.3008 137.042 17.8711 135.95 16.7344C134.859 15.5977 133.359 15.0352 131.452 15.0352C129.617 15.0352 128.118 15.6328 126.954 16.8281C125.791 18.0234 125.203 19.5117 125.203 21.3047C125.203 23.2148 125.803 24.75 127.002 25.8984C128.202 27.0469 129.749 27.6211 131.656 27.6211ZM127.062 20.5312C127.146 19.4648 127.59 18.5508 128.393 17.8008C129.197 17.0508 130.205 16.6758 131.416 16.6758C132.676 16.6758 133.683 17.0273 134.439 17.7305C135.195 18.4336 135.614 19.3594 135.698 20.5078L127.062 20.5312Z" fill="#1C3475"/>
<path d="M144.958 27.6211C146.398 27.6211 147.585 27.2695 148.533 26.5664C149.48 25.8633 149.948 24.9844 149.948 23.9297C149.948 23.0742 149.684 22.4062 149.157 21.9375C148.629 21.4688 147.897 21.0938 146.962 20.8242L143.471 19.8164C142.379 19.5 141.828 19.0195 141.828 18.375C141.828 17.9297 142.068 17.5195 142.547 17.1562C143.027 16.793 143.651 16.6055 144.419 16.6055C145.27 16.6055 146.002 16.793 146.626 17.1562C147.249 17.5195 147.669 17.9766 147.897 18.5273L149.624 18.0234C149.241 17.168 148.593 16.4531 147.681 15.8906C146.77 15.3281 145.69 15.0469 144.431 15.0469C143.171 15.0469 142.104 15.375 141.24 16.043C140.376 16.7109 139.945 17.4961 139.945 18.4102C139.933 19.8047 140.88 20.7773 142.787 21.3281L146.278 22.3359C146.914 22.5352 147.369 22.7578 147.645 23.0039C147.921 23.25 148.053 23.6016 148.053 24.0586C148.053 24.6094 147.765 25.0781 147.189 25.4648C146.614 25.8516 145.87 26.0391 144.97 26.0391C144.023 26.0391 143.195 25.8047 142.487 25.3359C141.78 24.8672 141.312 24.2695 141.084 23.5547L139.309 24.0352C139.621 25.0547 140.292 25.9219 141.336 26.625C142.379 27.3281 143.579 27.6797 144.934 27.6797L144.958 27.6211Z" fill="#1C3475"/>
<path d="M159.484 25.3594C158.92 25.6289 158.333 25.7695 157.721 25.7695C156.39 25.7695 155.73 25.0664 155.73 23.6602V17.0039H159.94V15.3281H155.73V11.2031H153.847V15.3281H151.412V17.0039H153.847V23.6602C153.847 24.8438 154.146 25.7695 154.746 26.4492C155.346 27.1289 156.246 27.4688 157.445 27.4688C158.321 27.4688 159.172 27.293 160 26.9414L159.484 25.3594Z" fill="#1C3475"/>
<path d="M22.2972 18.7312V35.0652H16.6983V21.5885L22.2972 18.7312ZM9.02119 25.5064V33.9387C10.111 34.4188 11.2567 34.7978 12.4467 35.065H14.6201V22.6484L9.02119 25.5064ZM24.279 17.721V34.5952C26.3491 33.8131 28.2404 32.6766 29.8777 31.2637V14.8631L24.279 17.721Z" fill="#FFC221"/>
<path d="M24.2788 17.721L29.8775 14.8631V21.3741C28.3183 22.8853 26.4279 24.2281 24.2788 25.3566V17.721ZM14.6197 28.57V22.6487L9.02077 25.5064V29.1208C10.9456 29.0702 12.8198 28.8837 14.6197 28.57ZM22.297 18.7312L16.6981 21.5885V28.1411C18.6815 27.6746 20.5572 27.0533 22.297 26.3009V18.7312Z" fill="#FFC221"/>
<path d="M37.1209 18.638C37.1209 22.7048 35.7381 26.4585 33.4155 29.4874L35.2321 36.6512C35.2928 36.8861 35.2206 37.1338 35.045 37.3029C34.911 37.4316 34.7345 37.5 34.5533 37.5C34.4927 37.5 34.4322 37.4936 34.3739 37.4767L25.9023 35.2909C23.6474 36.2443 21.1656 36.7762 18.5573 36.7762C12.8035 36.7762 7.65367 34.2061 4.24636 30.1789C7.53165 33.0532 11.8676 34.8066 16.6153 34.8066C21.438 34.8066 25.8354 32.9988 29.1405 30.0404C29.2243 29.9664 29.3049 29.8868 29.3886 29.8112C32.4216 27.002 34.3198 23.0342 34.3198 18.6382C34.3198 16.5872 33.9034 14.6308 33.1557 12.8389L35.651 11.5663C36.5977 13.7398 37.1209 16.1299 37.1209 18.638ZM41.9301 4.7335L37.6231 3.762C37.4932 3.73231 37.3582 3.77916 37.2767 3.88275C37.1954 3.98591 37.1823 4.12689 37.2456 4.2417L37.8631 5.38124L3.43387 22.9487C3.02369 21.58 2.80194 20.1334 2.80194 18.6367C2.80194 10.1455 9.87298 3.23831 18.5647 3.23831C22.9941 3.23831 26.9998 5.0346 29.8666 7.91984L32.44 6.60611C29.0361 2.86353 24.0792 0.5 18.5647 0.5C8.3286 0.5 0 8.63664 0 18.6369C0 21.1392 0.521171 23.5229 1.46243 25.6934L1.46378 25.6927C1.46356 25.6931 1.46311 25.6936 1.46266 25.694C1.6727 26.1783 1.90413 26.6519 2.1547 27.1135L39.3562 8.13121L39.96 9.24259C40.0225 9.3585 40.1484 9.42668 40.2808 9.41964C40.4134 9.41085 40.5307 9.32903 40.5777 9.20608L42.1707 5.17779C42.2414 4.99743 42.1219 4.77705 41.9301 4.7335Z" fill="#00C2FF"/>
</svg>
