<svg width="50" height="50" viewBox="0 0 50 50" fill="none" xmlns="http://www.w3.org/2000/svg">
<rect width="50" height="50" rx="8" fill="#376FFF"/>
<path d="M27.4976 25.1238V38.6738H22.8529V27.4941L27.4976 25.1238ZM16.4844 30.7442V37.7392C17.3885 38.1376 18.3389 38.4519 19.3261 38.6736H21.129V28.3734L16.4844 30.7442ZM29.1416 24.2858V38.2839C30.8588 37.6351 32.4277 36.6923 33.786 35.5202V21.915L29.1416 24.2858Z" fill="white"/>
<path d="M29.1408 24.2858L33.7852 21.915V27.3162C32.4918 28.5699 30.9236 29.6838 29.1408 30.62V24.2858ZM21.128 33.2857V28.3736L16.4834 30.7442V33.7425C18.0802 33.7006 19.6349 33.5458 21.128 33.2857ZM27.4968 25.1238L22.8522 27.4941V32.9299C24.4975 32.5429 26.0535 32.0274 27.4968 31.4033V25.1238V25.1238Z" fill="white"/>
<path d="M39.7938 25.0465C39.7938 28.4201 38.6468 31.5341 36.72 34.0467L38.227 39.9895C38.2774 40.1843 38.2174 40.3898 38.0718 40.5301C37.9606 40.6368 37.8142 40.6936 37.6639 40.6936C37.6137 40.6936 37.5634 40.6883 37.515 40.6742L30.4874 38.861C28.6169 39.6519 26.5581 40.0931 24.3943 40.0931C19.6212 40.0931 15.3491 37.9611 12.5226 34.6203C15.2479 37.0047 18.8448 38.4592 22.7833 38.4592C26.784 38.4592 30.4319 36.9596 33.1737 34.5054C33.2432 34.4441 33.31 34.378 33.3795 34.3153C35.8955 31.9849 37.4702 28.6934 37.4702 25.0466C37.4702 23.3452 37.1247 21.7223 36.5045 20.2358L38.5745 19.1801C39.3598 20.9832 39.7938 22.9659 39.7938 25.0465ZM43.7833 13.5119L40.2105 12.706C40.1027 12.6814 39.9907 12.7202 39.9231 12.8062C39.8557 12.8918 39.8448 13.0087 39.8973 13.104L40.4096 14.0493L11.8486 28.6224C11.5083 27.487 11.3244 26.287 11.3244 25.0454C11.3244 18.0014 17.1902 12.2716 24.4005 12.2716C28.0749 12.2716 31.3978 13.7617 33.776 16.1552L35.9108 15.0654C33.0871 11.9607 28.9751 10 24.4005 10C15.909 10 9 16.7498 9 25.0455C9 27.1214 9.43234 29.0988 10.2132 30.8993L10.2143 30.8988C10.2141 30.8991 10.2137 30.8995 10.2134 30.8998C10.3876 31.3016 10.5796 31.6944 10.7874 32.0774L41.6481 16.3305L42.149 17.2525C42.2009 17.3486 42.3053 17.4052 42.4152 17.3993C42.5252 17.392 42.6225 17.3242 42.6615 17.2222L43.983 13.8805C44.0416 13.7309 43.9424 13.548 43.7833 13.5119Z" fill="white"/>
</svg>
