<svg width="24" height="25" viewBox="0 0 24 25" fill="none" xmlns="http://www.w3.org/2000/svg">
<path opacity="0.1" fill-rule="evenodd" clip-rule="evenodd" d="M0 12.5C0 5.87258 5.37258 0.5 12 0.5C18.6274 0.5 24 5.87258 24 12.5C24 19.1274 18.6274 24.5 12 24.5C5.37258 24.5 0 19.1274 0 12.5Z" fill="white"/>
<path fill-rule="evenodd" clip-rule="evenodd" d="M12.0006 6.1001C10.2624 6.1001 10.0443 6.1077 9.36161 6.13876C8.68027 6.16997 8.2152 6.27783 7.80827 6.4361C7.38733 6.59957 7.03026 6.81824 6.67452 7.17411C6.31852 7.52985 6.09985 7.88692 5.93585 8.30772C5.77718 8.71479 5.66918 9.18 5.63851 9.86107C5.60798 10.5437 5.59998 10.762 5.59998 12.5002C5.59998 14.2383 5.60771 14.4558 5.63864 15.1385C5.66998 15.8198 5.77784 16.2849 5.93598 16.6918C6.09958 17.1127 6.31825 17.4698 6.67412 17.8256C7.02972 18.1816 7.38679 18.4008 7.80747 18.5642C8.21467 18.7225 8.67987 18.8304 9.36108 18.8616C10.0438 18.8926 10.2618 18.9002 11.9998 18.9002C13.7381 18.9002 13.9555 18.8926 14.6382 18.8616C15.3195 18.8304 15.7851 18.7225 16.1924 18.5642C16.6132 18.4008 16.9697 18.1816 17.3253 17.8256C17.6813 17.4698 17.9 17.1127 18.064 16.6919C18.2213 16.2849 18.3293 15.8197 18.3613 15.1386C18.392 14.4559 18.4 14.2383 18.4 12.5002C18.4 10.762 18.392 10.5439 18.3613 9.8612C18.3293 9.17986 18.2213 8.71479 18.064 8.30785C17.9 7.88692 17.6813 7.52985 17.3253 7.17411C16.9693 6.81811 16.6133 6.59944 16.192 6.4361C15.7839 6.27783 15.3186 6.16997 14.6373 6.13876C13.9546 6.1077 13.7373 6.1001 11.9986 6.1001H12.0006ZM11.4264 7.25343C11.5968 7.25316 11.7869 7.25343 12.0005 7.25343C13.7094 7.25343 13.9119 7.25956 14.5867 7.29023C15.2107 7.31876 15.5494 7.42303 15.775 7.51063C16.0737 7.62663 16.2866 7.7653 16.5105 7.9893C16.7345 8.2133 16.8731 8.42664 16.9894 8.72531C17.077 8.95064 17.1814 9.28931 17.2098 9.91332C17.2405 10.588 17.2471 10.7907 17.2471 12.4987C17.2471 14.2067 17.2405 14.4094 17.2098 15.084C17.1813 15.708 17.077 16.0467 16.9894 16.2721C16.8734 16.5707 16.7345 16.7834 16.5105 17.0073C16.2865 17.2313 16.0738 17.3699 15.775 17.4859C15.5497 17.5739 15.2107 17.6779 14.5867 17.7065C13.912 17.7371 13.7094 17.7438 12.0005 17.7438C10.2916 17.7438 10.0891 17.7371 9.41439 17.7065C8.79038 17.6777 8.45171 17.5734 8.22598 17.4858C7.92731 17.3698 7.71397 17.2311 7.48997 17.0071C7.26597 16.7831 7.1273 16.5703 7.01103 16.2715C6.92343 16.0462 6.81903 15.7075 6.79063 15.0835C6.75996 14.4088 6.75383 14.2062 6.75383 12.4971C6.75383 10.788 6.75996 10.5864 6.79063 9.91172C6.81916 9.28771 6.92343 8.94904 7.01103 8.72344C7.12703 8.42477 7.26597 8.21143 7.48997 7.98743C7.71397 7.76343 7.92731 7.62476 8.22598 7.50849C8.45158 7.42049 8.79038 7.31649 9.41439 7.28783C10.0048 7.26116 10.2336 7.25316 11.4264 7.25182V7.25343ZM15.4169 8.31611C14.9928 8.31611 14.6488 8.65971 14.6488 9.08385C14.6488 9.50785 14.9928 9.85185 15.4169 9.85185C15.8409 9.85185 16.1849 9.50785 16.1849 9.08385C16.1849 8.65984 15.8409 8.31611 15.4169 8.31611ZM12.0006 9.21345C10.1855 9.21345 8.71389 10.6851 8.71389 12.5001C8.71389 14.3152 10.1855 15.7862 12.0006 15.7862C13.8157 15.7862 15.2868 14.3152 15.2868 12.5001C15.2868 10.6851 13.8157 9.21345 12.0006 9.21345ZM12.0006 10.3668C13.1787 10.3668 14.1339 11.3219 14.1339 12.5001C14.1339 13.6783 13.1787 14.6335 12.0006 14.6335C10.8223 14.6335 9.86721 13.6783 9.86721 12.5001C9.86721 11.3219 10.8223 10.3668 12.0006 10.3668Z" fill="white"/>
</svg>
