<svg width="24" height="25" viewBox="0 0 24 25" fill="none" xmlns="http://www.w3.org/2000/svg">
<path opacity="0.1" fill-rule="evenodd" clip-rule="evenodd" d="M0 12.5C0 5.87258 5.37258 0.5 12 0.5C18.6274 0.5 24 5.87258 24 12.5C24 19.1274 18.6274 24.5 12 24.5C5.37258 24.5 0 19.1274 0 12.5Z" fill="white"/>
<path fill-rule="evenodd" clip-rule="evenodd" d="M17.0008 8.37476C17.5515 8.52589 17.9853 8.9712 18.1325 9.53671C18.4 10.5616 18.4 12.7001 18.4 12.7001C18.4 12.7001 18.4 14.8385 18.1325 15.8635C17.9853 16.429 17.5515 16.8743 17.0008 17.0255C16.0027 17.3001 12 17.3001 12 17.3001C12 17.3001 7.99728 17.3001 6.9991 17.0255C6.44834 16.8743 6.01459 16.429 5.86739 15.8635C5.59998 14.8385 5.59998 12.7001 5.59998 12.7001C5.59998 12.7001 5.59998 10.5616 5.86739 9.53671C6.01459 8.9712 6.44834 8.52589 6.9991 8.37476C7.99728 8.1001 12 8.1001 12 8.1001C12 8.1001 16.0027 8.1001 17.0008 8.37476ZM10.8 10.9001V14.9001L14 12.9001L10.8 10.9001Z" fill="white"/>
</svg>
