<svg width="14" height="13" viewBox="0 0 14 13" fill="none" xmlns="http://www.w3.org/2000/svg">
<path fill-rule="evenodd" clip-rule="evenodd" d="M13.4 6.49122C13.4 6.92404 13.3559 7.35626 13.2694 7.77757C13.185 8.18888 13.06 8.59268 12.8962 8.9787C12.7362 9.35789 12.5378 9.7233 12.3059 10.0641C12.0774 10.4027 11.8143 10.7204 11.5252 11.0099C11.2355 11.2983 10.9167 11.5607 10.5783 11.7901C10.2364 12.0204 9.87047 12.2186 9.49106 12.3793C9.10448 12.5422 8.69975 12.667 8.2888 12.7513C7.86693 12.838 7.43313 12.8823 6.99969 12.8823C6.56592 12.8823 6.13215 12.838 5.71088 12.7513C5.2993 12.667 4.89459 12.5422 4.50832 12.3793C4.12893 12.2186 3.76264 12.0204 3.42076 11.7901C3.0823 11.5607 2.76354 11.2983 2.47446 11.0099C2.18508 10.7204 1.92193 10.4027 1.69317 10.0641C1.46253 9.7233 1.26376 9.35787 1.10313 8.9787C0.939356 8.59268 0.814055 8.18886 0.72936 7.77757C0.643738 7.35626 0.599976 6.92404 0.599976 6.49122C0.599976 6.05808 0.643713 5.62494 0.729385 5.20455C0.81408 4.79324 0.939381 4.38881 1.10316 4.00342C1.26378 3.62396 1.46256 3.25823 1.69319 2.91744C1.92195 2.57854 2.18511 2.26147 2.47449 1.97155C2.76357 1.68319 3.08233 1.42139 3.42078 1.19234C3.76267 0.961083 4.12895 0.762946 4.50834 0.601905C4.89462 0.438663 5.2993 0.313543 5.7109 0.229921C6.13217 0.143797 6.56594 0.100098 6.99971 0.100098C7.43316 0.100098 7.86693 0.143797 8.28882 0.229921C8.69977 0.313568 9.10448 0.438688 9.49109 0.601905C9.87047 0.762921 10.2364 0.961083 10.5783 1.19234C10.9168 1.42139 11.2356 1.68319 11.5252 1.97155C11.8143 2.26147 12.0775 2.57854 12.3059 2.91744C12.5378 3.25823 12.7362 3.62398 12.8962 4.00342C13.06 4.38881 13.185 4.79324 13.2694 5.20455C13.3559 5.62494 13.4 6.05808 13.4 6.49122ZM4.66766 1.55463C3.14351 2.27334 2.00595 3.67575 1.65124 5.36591C1.79533 5.36716 4.07295 5.39587 6.69713 4.69963C5.75116 3.02133 4.74049 1.65171 4.66766 1.55463ZM7.14997 5.54006C4.33577 6.38136 1.6353 6.32082 1.53844 6.31709C1.53686 6.37575 1.53405 6.43254 1.53405 6.49122C1.53405 7.89331 2.06376 9.17153 2.93444 10.138C2.93256 10.1352 4.42828 7.48545 7.3778 6.53304C7.44904 6.50933 7.52156 6.48809 7.59343 6.4675C7.45626 6.15733 7.30653 5.8465 7.14997 5.54006ZM10.6092 2.39504C9.64698 1.54776 8.3835 1.03382 6.99967 1.03382C6.55558 1.03382 6.12461 1.0875 5.71179 1.18673C5.79365 1.29659 6.82028 2.65656 7.75501 4.3704C9.81732 3.59836 10.5958 2.415 10.6092 2.39504ZM7.96599 7.37187C7.95382 7.3759 7.94165 7.37937 7.92975 7.38373C4.70494 8.50632 3.65184 10.7687 3.64045 10.7934C4.56833 11.5139 5.73214 11.9486 6.99971 11.9486C7.7566 11.9486 8.47757 11.7947 9.13354 11.5161C9.0526 11.0393 8.73509 9.36784 7.96599 7.37187ZM10.0539 11.0174C11.2811 10.1905 12.1527 8.87729 12.3959 7.35624C12.2834 7.32004 10.7542 6.83664 8.99006 7.11908C9.70697 9.08636 9.99825 10.6885 10.0539 11.0174ZM8.1757 5.18366C8.30256 5.44393 8.4254 5.70883 8.53883 5.97505C8.57916 6.07056 8.61854 6.16418 8.65697 6.25779C10.5346 6.02185 12.3843 6.4188 12.4634 6.43501C12.4509 5.14121 11.9874 3.95379 11.2206 3.02416C11.2102 3.0388 10.3336 4.30361 8.1757 5.18366Z" fill="white"/>
</svg>
