<svg width="160" height="37" viewBox="0 0 160 37" fill="none" xmlns="http://www.w3.org/2000/svg">
<path d="M64.0408 10H49.1311V12.9766H54.9007V26.8047H58.2712V12.9766H64.0408V10Z" fill="white"/>
<path d="M79.0584 14.6641L76.4795 22.7969L73.9006 14.6641H71.1777L68.6228 22.7969L66.0439 14.6641H62.6734L66.9555 26.8047H69.9903L72.5452 19.1523L75.1001 26.8047H78.1228L82.429 14.6641H79.0584Z" fill="white"/>
<path d="M89.6739 27.1445C91.1732 27.1445 92.4447 26.793 93.4883 26.1016C94.5318 25.4102 95.2515 24.6016 95.6593 23.6875L92.7326 22.8438C92.1568 23.9102 91.1493 24.4492 89.7099 24.4492C88.6303 24.4492 87.7907 24.2031 87.1789 23.6992C86.5672 23.1953 86.2074 22.5273 86.0994 21.6953H95.7553C95.8033 21.4375 95.8273 21.0625 95.8273 20.5703C95.8273 18.7773 95.2515 17.2891 94.1 16.1055C92.9485 14.9219 91.3772 14.3359 89.398 14.3359C87.4668 14.3359 85.8955 14.9453 84.696 16.1641C83.4965 17.3828 82.8968 18.918 82.8968 20.7578C82.8968 22.6797 83.5205 24.2266 84.768 25.3984C86.0154 26.5703 87.6348 27.1562 89.6379 27.1562L89.6739 27.1445ZM86.0754 19.7148C86.1714 18.9766 86.5192 18.3438 87.119 17.8164C87.7187 17.2891 88.4624 17.0195 89.362 17.0195C90.2976 17.0195 91.0533 17.2773 91.641 17.793C92.2288 18.3086 92.5647 18.9531 92.6486 19.7148H86.0754Z" fill="white"/>
<path d="M104.284 27.1445C105.783 27.1445 107.054 26.793 108.098 26.1016C109.142 25.4102 109.861 24.6016 110.269 23.6875L107.342 22.8438C106.767 23.9102 105.759 24.4492 104.32 24.4492C103.24 24.4492 102.4 24.2031 101.789 23.6992C101.177 23.1953 100.817 22.5273 100.709 21.6953H110.365C110.413 21.4375 110.437 21.0625 110.437 20.5703C110.437 18.7773 109.861 17.2891 108.71 16.1055C107.558 14.9219 105.987 14.3359 104.008 14.3359C102.077 14.3359 100.505 14.9453 99.3058 16.1641C98.1063 17.3828 97.5066 18.918 97.5066 20.7578C97.5066 22.6797 98.1303 24.2266 99.3778 25.3984C100.625 26.5703 102.245 27.1562 104.248 27.1562L104.284 27.1445ZM100.685 19.7148C100.781 18.9766 101.129 18.3438 101.729 17.8164C102.329 17.2891 103.072 17.0195 103.972 17.0195C104.907 17.0195 105.663 17.2773 106.251 17.793C106.839 18.3086 107.174 18.9531 107.258 19.7148H100.685Z" fill="white"/>
<path d="M122.276 14.8281L117.958 24.7891L113.616 14.8281H111.577L116.902 26.8047H118.989L124.315 14.8281H122.276Z" fill="white"/>
<path d="M131.656 27.1211C133.095 27.1211 134.307 26.793 135.29 26.125C136.274 25.457 136.994 24.6367 137.45 23.6641L135.71 23.1602C135.386 23.8281 134.883 24.3789 134.199 24.8125C133.515 25.2461 132.676 25.4688 131.68 25.4688C130.337 25.4688 129.257 25.0938 128.441 24.3438C127.626 23.5938 127.17 22.6094 127.086 21.3906H137.546C137.582 21.1797 137.594 20.8867 137.594 20.5234C137.594 18.8008 137.042 17.3711 135.95 16.2344C134.859 15.0977 133.359 14.5352 131.452 14.5352C129.617 14.5352 128.118 15.1328 126.954 16.3281C125.791 17.5234 125.203 19.0117 125.203 20.8047C125.203 22.7148 125.803 24.25 127.002 25.3984C128.202 26.5469 129.749 27.1211 131.656 27.1211ZM127.062 20.0312C127.146 18.9648 127.59 18.0508 128.393 17.3008C129.197 16.5508 130.205 16.1758 131.416 16.1758C132.676 16.1758 133.683 16.5273 134.439 17.2305C135.195 17.9336 135.614 18.8594 135.698 20.0078L127.062 20.0312Z" fill="white"/>
<path d="M144.958 27.1211C146.398 27.1211 147.585 26.7695 148.533 26.0664C149.48 25.3633 149.948 24.4844 149.948 23.4297C149.948 22.5742 149.684 21.9062 149.157 21.4375C148.629 20.9688 147.897 20.5938 146.962 20.3242L143.471 19.3164C142.379 19 141.828 18.5195 141.828 17.875C141.828 17.4297 142.068 17.0195 142.547 16.6562C143.027 16.293 143.651 16.1055 144.419 16.1055C145.27 16.1055 146.002 16.293 146.626 16.6562C147.249 17.0195 147.669 17.4766 147.897 18.0273L149.624 17.5234C149.241 16.668 148.593 15.9531 147.681 15.3906C146.77 14.8281 145.69 14.5469 144.431 14.5469C143.171 14.5469 142.104 14.875 141.24 15.543C140.376 16.2109 139.945 16.9961 139.945 17.9102C139.933 19.3047 140.88 20.2773 142.787 20.8281L146.278 21.8359C146.914 22.0352 147.369 22.2578 147.645 22.5039C147.921 22.75 148.053 23.1016 148.053 23.5586C148.053 24.1094 147.765 24.5781 147.189 24.9648C146.614 25.3516 145.87 25.5391 144.97 25.5391C144.023 25.5391 143.195 25.3047 142.487 24.8359C141.78 24.3672 141.312 23.7695 141.084 23.0547L139.309 23.5352C139.621 24.5547 140.292 25.4219 141.336 26.125C142.379 26.8281 143.579 27.1797 144.934 27.1797L144.958 27.1211Z" fill="white"/>
<path d="M159.484 24.8594C158.92 25.1289 158.333 25.2695 157.721 25.2695C156.39 25.2695 155.73 24.5664 155.73 23.1602V16.5039H159.94V14.8281H155.73V10.7031H153.847V14.8281H151.412V16.5039H153.847V23.1602C153.847 24.3438 154.146 25.2695 154.746 25.9492C155.346 26.6289 156.246 26.9688 157.445 26.9688C158.321 26.9688 159.172 26.793 160 26.4414L159.484 24.8594Z" fill="white"/>
<path d="M22.2972 18.2312V34.5652H16.6983V21.0885L22.2972 18.2312ZM9.02119 25.0064V33.4386C10.111 33.9188 11.2567 34.2977 12.4467 34.565H14.6201V22.1484L9.02119 25.0064ZM24.279 17.221V34.0952C26.3491 33.313 28.2404 32.1766 29.8777 30.7637V14.363L24.279 17.221Z" fill="#FFC221"/>
<path d="M24.2788 17.221L29.8775 14.363V20.8741C28.3183 22.3853 26.4279 23.7281 24.2788 24.8566V17.221ZM14.6197 28.07V22.1486L9.02077 25.0064V28.6207C10.9456 28.5702 12.8198 28.3836 14.6197 28.07ZM22.297 18.2312L16.6981 21.0885V27.6411C18.6815 27.1746 20.5572 26.5533 22.297 25.8008V18.2312Z" fill="#FFC221"/>
<path d="M37.1209 18.138C37.1209 22.2048 35.7381 25.9585 33.4155 28.9874L35.2321 36.1512C35.2928 36.3861 35.2206 36.6338 35.045 36.8029C34.911 36.9316 34.7345 37 34.5533 37C34.4927 37 34.4322 36.9936 34.3739 36.9767L25.9023 34.7909C23.6474 35.7443 21.1656 36.2762 18.5573 36.2762C12.8035 36.2762 7.65367 33.7061 4.24636 29.6789C7.53165 32.5532 11.8676 34.3066 16.6153 34.3066C21.438 34.3066 25.8354 32.4988 29.1405 29.5404C29.2243 29.4664 29.3049 29.3868 29.3886 29.3112C32.4216 26.502 34.3198 22.5342 34.3198 18.1382C34.3198 16.0872 33.9034 14.1308 33.1557 12.3389L35.651 11.0663C36.5977 13.2398 37.1209 15.6299 37.1209 18.138ZM41.9301 4.2335L37.6231 3.262C37.4932 3.23231 37.3582 3.27916 37.2767 3.38275C37.1954 3.48591 37.1823 3.62689 37.2456 3.7417L37.8631 4.88124L3.43387 22.4487C3.02369 21.08 2.80194 19.6334 2.80194 18.1367C2.80194 9.64546 9.87298 2.73831 18.5647 2.73831C22.9941 2.73831 26.9998 4.5346 29.8666 7.41984L32.44 6.10611C29.0361 2.36353 24.0792 0 18.5647 0C8.3286 0 0 8.13664 0 18.1369C0 20.6392 0.521171 23.0229 1.46243 25.1934L1.46378 25.1927C1.46356 25.1931 1.46311 25.1936 1.46266 25.194C1.6727 25.6783 1.90413 26.1519 2.1547 26.6135L39.3562 7.63121L39.96 8.74259C40.0225 8.8585 40.1484 8.92668 40.2808 8.91964C40.4134 8.91085 40.5307 8.82903 40.5777 8.70608L42.1707 4.67779C42.2414 4.49743 42.1219 4.27705 41.9301 4.2335Z" fill="#00C2FF"/>
</svg>
